<svg viewBox="0 0 121 159.45" xmlns="http://www.w3.org/2000/svg"><path d="m121 60.5a60.5 60.5 0 1 0 -77.71 58l15.9 40.05a1.41 1.41 0 0 0 2.62 0l15.9-40a60.52 60.52 0 0 0 43.29-58.05z" fill="#00a9ec"/><g fill="#fff"><path d="m84.47 33h-9.9v3.53h6.77l3.61 29.79h-25.02-25.02l3.61-29.79h6.77v-3.53h-9.9l-4.46 36.86h29 29.01z"/><path d="m102.85 69.48h-8.8l-3.88-36.35h12.68v3.28h-9.03l3.18 29.79h5.85z"/><path d="m27.07 69.61h-8.79v-3.29h5.84l3.19-29.79h-9.03v-3.28h12.68z"/><path d="m18.15 73.9h84.57v3.28h-84.57z"/><path d="m18.28 86.77h84.57v3.28h-84.57z"/><path d="m18.28 81.22h7.07v1.51h-7.07z"/><path d="m31.15 81.22h7.07v1.51h-7.07z"/><path d="m44.03 81.22h7.07v1.51h-7.07z"/><path d="m56.9 81.22h7.07v1.51h-7.07z"/><path d="m69.78 81.22h7.07v1.51h-7.07z"/><path d="m82.65 81.22h7.07v1.51h-7.07z"/><path d="m95.53 81.22h7.07v1.51h-7.07z"/><path d="m60.5 21a12 12 0 0 0 -10.17 18.24l9.49 15.29a1 1 0 0 0 .85.47 1 1 0 0 0 .85-.48l9.25-15.44a12 12 0 0 0 -10.27-18.08zm8.56 17-8.41 14-8.65-13.81a10 10 0 1 1 17-.14z"/><path d="m60.5 27a6 6 0 1 0 6 6 6 6 0 0 0 -6-6zm0 10a4 4 0 1 1 4-4 4 4 0 0 1 -4 4z"/></g></svg>